<!-- globe.svg -->
<svg xmlns="http://www.w3.org/2000/svg" viewBox="0 0 512 512">
  <circle cx="256" cy="256" r="248" fill="#1e90ff"/>
  <path d="M391 153a209 209 0 0 0-13-29c-26-39-61-71-100-93a208 208 0 0 0-149 0c-39 22-74 54-100 93a209 209 0 0 0-13 29 207 207 0 0 0-3 214 209 209 0 0 0 38 61c24 30 54 54 89 71a207 207 0 0 0 100 0c35-17 65-41 89-71a209 209 0 0 0 38-61 207 207 0 0 0-3-214zM208 284a32 32 0 1 1 64 0 32 32 0 1 1-64 0z" fill="#fff"/>
  <path d="M295 122a207 207 0 0 0-81 0 212 212 0 0 0-66 28 2 2 0 0 1-2-4 212 212 0 0 0 66-28 207 207 0 0 0 81 0c26 9 51 22 73 38a2 2 0 0 1-3 3 201 201 0 0 1-73-37zM208 88c15 0 29 3 43 9s26 14 36 25a2 2 0 0 1-2 3 205 205 0 0 0-77 37c10-11 22-19 35-24s28-9 43-9zM381 185c-34-15-70-21-106-19a2 2 0 0 1 0-4c36-2 72 4 106 19a2 2 0 0 1 1 3z" fill="#fff"/>
  <path d="M162 213c-4 0-8 1-11 3a2 2 0 0 1-3-2c3-7 7-13 13-18a2 2 0 0 1 2 3c-4 4-7 9-9 15a2 2 0 0 1-2 1z" fill="#fff"/>
  <path d="M305 208a2 2 0 0 1-2-3c5-6 10-12 13-20a2 2 0 0 1 3 1c-3 6-8 11-13 16a2 2 0 0 1-1 1z" fill="#fff"/>
  <path d="M256 40a2 2 0 0 0-1 0 204 204 0 0 0-107 37 2 2 0 0 0 3 3c20-19 46-32 73-37a205 205 0 0 1 77 37 2 2 0 0 0 3-3 204 204 0 0 0-107-37zM243 62a2 2 0 0 0-1-1 206 206 0 0 1-50-21 208 208 0 0 1 50 21 2 2 0 0 0 1 1zM125 154a2 2 0 0 0-2 1c-6 9-10 19-13 30a2 2 0 0 0 3 1c3-11 7-21 14-30a2 2 0 0 0-2-2z" fill="#fff"/>
  <path d="M366 185a2 2 0 0 1 1-3c34-15 70-21 106-19a2 2 0 0 1 0 4c-36-2-72 4-106 19a2 2 0 0 1-1-3z" fill="#fff"/>
  <path d="M410 243c-26 18-55 31-85 39a2 2 0 0 1 0-4c30-8 59-21 85-39a2 2 0 0 1 1 3z" fill="#fff"/>
  <path d="M207 262c-13 0-25 3-37 8a2 2 0 0 1-2-4c13-5 27-8 41-8s28 3 41 8a2 2 0 0 1-2 4c-12-5-24-8-37-8zM256 288c-12 0-23 3-33 8a2 2 0 0 1-2-4c10-5 21-8 33-8s23 3 33 8a2 2 0 0 1-2 4c-10-5-21-8-33-8z" fill="#fff"/>
  <path d="M305 262c-13 0-25 3-37 8a2 2 0 0 1-2-4c13-5 27-8 41-8s28 3 41 8a2 2 0 0 1-2 4c-12-5-24-8-37-8z" fill="#fff"/>
  <path d="M256 288c-12 0-23 3-33 8a2 2 0 0 1-2-4c10-5 21-8 33-8s23 3 33 8a2 2 0 0 1-2 4c-10-5-21-8-33-8z" fill="#fff"/>
  <path d="M325 392c-26 18-55 31-85 39a2 2 0 0 1 0-4c30-8 59-21 85-39a2 2 0 0 1 0 4z" fill="#fff"/>
  <path d="M93 243c-7 0-14 1-21 2a2 2 0 0 1 0-4c7-1 14-2 21-2a2 2 0 0 1 0 4z" fill="#fff"/>
  <path d="M391 243c-7-1-14-2-21-2a2 2 0 0 1 0 4c7 1 14 2 21 2a2 2 0 0 1 0-4z" fill="#fff"/>
</svg>
